<svg width="360" height="360" viewBox="0 0 360 360" fill="none" xmlns="http://www.w3.org/2000/svg">
<rect width="360" height="360" rx="62" fill="url(#paint0_linear_170_3)"/>
<g opacity="0.3" filter="url(#filter0_f_170_3)">
<path d="M105 74H151.8L200.1 145.1L248.7 74H295.8L225.6 174.8L301.8 284H253.8L200.1 206.9L146.7 284H99.6L175.8 176.3L105 74Z" fill="url(#paint1_linear_170_3)"/>
</g>
<g opacity="0.3" filter="url(#filter1_f_170_3)">
<path d="M69 74H115.8L164.1 145.1L212.7 74H259.8L189.6 174.8L265.8 284H217.8L164.1 206.9L110.7 284H63.6L139.8 176.3L69 74Z" fill="url(#paint2_linear_170_3)"/>
</g>
<path d="M88 73H134.8L183.1 144.1L231.7 73H278.8L208.6 173.8L284.8 283H236.8L183.1 205.9L129.7 283H82.6L158.8 175.3L88 73Z" fill="url(#paint3_linear_170_3)"/>
<defs>
<filter id="filter0_f_170_3" x="95.6" y="70" width="210.2" height="218" filterUnits="userSpaceOnUse" color-interpolation-filters="sRGB">
<feFlood flood-opacity="0" result="BackgroundImageFix"/>
<feBlend mode="normal" in="SourceGraphic" in2="BackgroundImageFix" result="shape"/>
<feGaussianBlur stdDeviation="2" result="effect1_foregroundBlur_170_3"/>
</filter>
<filter id="filter1_f_170_3" x="59.6" y="70" width="210.2" height="218" filterUnits="userSpaceOnUse" color-interpolation-filters="sRGB">
<feFlood flood-opacity="0" result="BackgroundImageFix"/>
<feBlend mode="normal" in="SourceGraphic" in2="BackgroundImageFix" result="shape"/>
<feGaussianBlur stdDeviation="2" result="effect1_foregroundBlur_170_3"/>
</filter>
<linearGradient id="paint0_linear_170_3" x1="180" y1="0" x2="180" y2="360" gradientUnits="userSpaceOnUse">
<stop stop-color="#F4F7FF"/>
<stop offset="1" stop-color="#F2F2F2"/>
</linearGradient>
<linearGradient id="paint1_linear_170_3" x1="223" y1="53" x2="223.315" y2="299.001" gradientUnits="userSpaceOnUse">
<stop offset="0.69" stop-color="#0E465E"/>
<stop offset="1" stop-color="#3965FF"/>
</linearGradient>
<linearGradient id="paint2_linear_170_3" x1="187" y1="53" x2="187.315" y2="299.001" gradientUnits="userSpaceOnUse">
<stop offset="0.69" stop-color="#0E465E"/>
<stop offset="1" stop-color="#3965FF"/>
</linearGradient>
<linearGradient id="paint3_linear_170_3" x1="180.5" y1="73" x2="180.5" y2="277" gradientUnits="userSpaceOnUse">
<stop stop-color="#0E465E"/>
<stop offset="0.5" stop-color="#0E465E"/>
<stop offset="1" stop-color="#3965FF"/>
</linearGradient>
</defs>
</svg>
